<?xml version="1.0" encoding="iso-8859-1"?>
<!-- Generator: Adobe Illustrator 19.0.0, SVG Export Plug-In . SVG Version: 6.00 Build 0)  -->
<svg version="1.1" id="Capa_1" xmlns="http://www.w3.org/2000/svg" xmlns:xlink="http://www.w3.org/1999/xlink" x="0px" y="0px"
	 viewBox="0 0 511.998 511.998" style="enable-background:new 0 0 511.998 511.998;" xml:space="preserve">
<path style="fill:#424A4C;" d="M242.585,105.937l-25.924-20.914c-1.686-1.36-2.304-3.651-1.531-5.675l26.227-68.635
	c0.74-1.936,2.597-3.215,4.67-3.215h16.951c2.761,0,4.999,2.238,4.999,4.999v93.44H242.585z"/>
<path style="fill:#FFD15C;" d="M242.216,280.377c-2.35-1.148-4.657-2.384-6.913-3.704c-15.43-9.025-36.158-25.346-36.593-44.859
	c-0.202-9.063-4.858-10.192-8.838-9.479c-3.161,0.566-5.971,2.413-7.876,4.997c-17.702,24.012-11.605,49.891-6.358,63.249
	c4.138,10.534,7.972,21.185,11.242,32.02c5.441,18.026,3.122,37.505-6.401,53.749l-11.312,19.296c0,0-47.933,77.597,44.84,103.297
	c26.731,7.405,55.059,7.405,81.79,0c92.772-25.7,44.84-103.297,44.84-103.297l-14.95-25.503
	c-7.202-12.286-8.957-27.019-4.841-40.653l5.641-18.69c4.527-14.997,15.34-31.716,5.834-47.209
	c-2.021-3.294-11.24-10.91-15.317-5.802c-1.98,2.481-2.703,6.908-2.521,10.01c0.665,11.347-2.366,19.541-14.349,22.384
	c-9.99,2.37-20.836,0.89-30.8-0.904C269.333,289.278,261.524,286.439,242.216,280.377"/>
<path style="fill:#E8B44D;" d="M295.792,498.944c-17.176,4.759-35.012,6.459-52.658,5.099c9.808-0.75,19.566-2.459,29.124-5.099
	c92.769-25.704,44.84-103.297,44.84-103.297l-14.957-25.504c-7.198-12.287-8.958-27.024-4.839-40.651l5.639-18.696
	c2.779-9.228,7.948-19.106,9.298-28.954c2.02-3.769,2.569-8.538,2.24-14.047c-0.18-3.099,0.55-7.528,2.529-10.008
	c4.069-5.109,13.287,2.509,15.316,5.799c9.498,15.497-1.31,32.213-5.839,47.209l-5.639,18.696
	c-4.119,13.627-2.359,28.364,4.839,40.651l14.947,25.504C340.632,395.647,388.572,473.24,295.792,498.944z"/>
<path style="fill:#FFD15C;" d="M262.978,325.689h-15.394c-2.761,0-4.999-2.238-4.999-4.999V105.937h25.392V320.69
	C267.976,323.451,265.738,325.689,262.978,325.689z"/>
<circle cx="203.139" cy="59.56" r="5.45"/>
<circle cx="209.839" cy="44.28" r="5.45"/>
<circle cx="216.289" cy="30.644" r="5.45"/>
<circle cx="222.859" cy="16.1" r="5.45"/>
<circle cx="299.449" cy="457.23" r="8.583"/>
<circle cx="316.619" cy="427.32" r="8.583"/>
<path d="M347.068,391.789l-14.914-25.439c-6.127-10.451-7.632-23.096-4.131-34.694l5.641-18.69c0.92-3.046,2.15-6.244,3.452-9.631
	c4.874-12.67,10.939-28.438,1.594-43.666c-2.224-3.626-9.562-10.594-17.23-11.068c-4.149-0.258-7.814,1.346-10.34,4.509
	c-3.457,4.333-4.407,10.655-4.145,15.127c0.616,10.514-2.411,13.182-8.595,14.649c-7.277,1.728-15.395,1.016-22.928-0.169v-176.78
	v-93.44C275.475,5.606,269.869,0,262.978,0h-16.951c-5.145,0-9.837,3.229-11.674,8.036l-26.227,68.635
	c-1.939,5.074-0.402,10.775,3.826,14.188l23.135,18.663v158.231c-10.878-6.931-28.534-20.553-28.88-36.106
	c-0.141-6.312-2.047-11.014-5.668-13.975c-2.225-1.82-6.107-3.771-11.99-2.718c-5.012,0.898-9.482,3.714-12.589,7.928
	c-19.85,26.927-13.095,55.691-7.302,70.439c4.511,11.485,8.122,21.771,11.043,31.446c4.821,15.975,2.747,33.393-5.691,47.79
	l-11.279,19.238c-0.727,1.197-7.39,12.413-11.049,27.668c-0.966,4.027,1.515,8.075,5.543,9.04c0.588,0.141,1.176,0.209,1.754,0.209
	c3.388,0,6.46-2.312,7.285-5.751c3.206-13.366,9.227-23.289,9.281-23.376c0.03-0.049,0.061-0.099,0.089-0.148l11.313-19.296
	c10.543-17.986,13.135-39.749,7.11-59.708c-3.038-10.067-6.781-20.728-11.441-32.594c-4.662-11.869-10.158-34.935,5.415-56.059
	c0.764-1.035,1.833-1.764,2.958-2.023c0.102,0.476,0.2,1.193,0.224,2.223c0.542,24.323,25.485,42.496,40.304,51.164
	c1.172,0.686,2.365,1.353,3.57,1.999v35.546c0,6.891,5.606,12.497,12.497,12.497h15.394c6.891,0,12.497-5.606,12.497-12.497v-22.824
	c8.755,1.225,17.758,1.66,26.39-0.388c14.312-3.395,21.076-13.528,20.104-30.12c-0.061-1.031,0.06-2.122,0.25-3.025
	c1.433,0.882,3.122,2.308,3.71,3.179c5.102,8.315,2.342,17.047-2.809,30.44c-1.343,3.492-2.732,7.103-3.812,10.681l-5.641,18.689
	c-4.704,15.581-2.681,32.571,5.551,46.612l14.951,25.504c0.024,0.042,0.057,0.096,0.082,0.137c0.185,0.303,18.43,30.579,8.084,56.83
	c-6.419,16.287-22.751,28.168-48.54,35.312c-25.445,7.049-52.342,7.048-77.786,0c-21.826-6.047-36.936-15.52-44.908-28.154
	c-2.208-3.503-6.841-4.551-10.342-2.34c-3.502,2.209-4.551,6.84-2.34,10.342c10.024,15.888,28.053,27.53,53.588,34.604
	c14.032,3.887,28.464,5.83,42.897,5.83c14.432,0,28.865-1.943,42.896-5.83c30.621-8.483,50.313-23.409,58.527-44.364
	C369.187,428.996,348.538,394.198,347.068,391.789z M247.747,14.997h12.732v83.442h-15.246l-22.45-18.111L247.747,14.997z
	 M260.478,318.191h-10.395V113.436h10.395V318.191z"/>
<path d="M231.359,356.881h47.085c4.142,0,7.498-3.357,7.498-7.498s-3.357-7.498-7.498-7.498h-47.085
	c-4.142,0-7.498,3.357-7.498,7.498S227.217,356.881,231.359,356.881z"/>
<path d="M231.359,389.478h47.085c4.142,0,7.498-3.357,7.498-7.498s-3.357-7.498-7.498-7.498h-47.085
	c-4.142,0-7.498,3.357-7.498,7.498S227.217,389.478,231.359,389.478z"/>
<g>
</g>
<g>
</g>
<g>
</g>
<g>
</g>
<g>
</g>
<g>
</g>
<g>
</g>
<g>
</g>
<g>
</g>
<g>
</g>
<g>
</g>
<g>
</g>
<g>
</g>
<g>
</g>
<g>
</g>
</svg>
