<svg height="512" viewBox="0 0 64 64" width="512" xmlns="http://www.w3.org/2000/svg"><g id="usb_cable-component" data-name="usb cable-component"><path d="m44 3h14v13h-14z" fill="#e0e0e2"/><path d="m44 3h7v13h-7z" fill="#d8d7da"/><path d="m14 4v8h-8v-8a1 1 0 0 1 1-1h6a1 1 0 0 1 1 1z" fill="#e0e0e2"/><path d="m7 28h6v7h-6z" fill="#57565c"/><path d="m3 12h14v16h-14z" fill="#ff5023"/><path d="m48 39h6v7h-6z" fill="#57565c"/><path d="m41 16h20v23h-20z" fill="#ff5023"/><path d="m47 9h2v2h-2z" fill="#57565c"/><path d="m53 9h2v2h-2z" fill="#57565c"/><g fill="#ff734f"><rect height="6" rx="1" width="2" x="5" y="19"/><path d="m5 15h2v2h-2z"/><rect height="6" rx="1" width="2" x="44" y="26"/><path d="m44 22h2v2h-2z"/></g><path d="m48 39h6v1h-6z" fill="#2d2d30"/><path d="m7 28h6v1h-6z" fill="#2d2d30"/><path d="m47 62h-40.5a4.5 4.5 0 0 1 0-9h29.5a3 3 0 0 0 0-6h-22a5.006 5.006 0 0 1 -5-5v-7h2v7a3 3 0 0 0 3 3h22a5 5 0 0 1 0 10h-29.5a2.5 2.5 0 0 0 0 5h40.5a3 3 0 0 0 3-3v-11h2v11a5.006 5.006 0 0 1 -5 5z" fill="#acabb1"/><path d="m7 5h1v6h-1z" fill="#fff"/></g></svg>